Coordinates
version=1
nRows=27
nColumns=38
inDegrees=no

Units are S.I. units (second, meters, Newtons, ...)
If the header above contains a line with 'inDegrees', this indicates whether rotational values are in degrees (yes) or radians (no).

endheader
time	pelvis_tilt	pelvis_list	pelvis_rotation	pelvis_tx	pelvis_ty	pelvis_tz	hip_flexion_r	hip_adduction_r	hip_rotation_r	knee_angle_r	ankle_angle_r	subtalar_angle_r	mtp_angle_r	hip_flexion_l	hip_adduction_l	hip_rotation_l	knee_angle_l	ankle_angle_l	subtalar_angle_l	mtp_angle_l	lumbar_extension	lumbar_bending	lumbar_rotation	arm_flex_r	arm_add_r	arm_rot_r	elbow_flex_r	pro_sup_r	wrist_flex_r	wrist_dev_r	arm_flex_l	arm_add_l	arm_rot_l	elbow_flex_l	pro_sup_l	wrist_flex_l	wrist_dev_l
0.55	-0.0679558	1.26294	-1.32222	0.63382	1.22438	0.924101	0.0946092	0.0289334	-0.199747	0.309601	-0.268476	0	0	-0.523599	-0.134546	-0.15562	0.411927	-0.106116	0	0	-0.295437	0.145603	0.114037	-0.137281	-0.72247	-0.0302874	1.59012	0.622783	0	0	0.52624	-0.493947	0.636054	1.07112	0.723849	0	0
0.56	-0.08059	1.26028	-1.30869	0.632667	1.2132	0.924689	0.0845232	0.0380853	-0.200453	0.311892	-0.287573	0	0	-0.523599	-0.144561	-0.147181	0.444349	-0.11773	0	0	-0.296183	0.151012	0.114701	-0.13752	-0.722566	-0.0283234	1.5889	0.623273	0	0	0.524894	-0.494116	0.636966	1.07	0.723203	0	0
0.57	-0.0921481	1.25635	-1.29785	0.631488	1.20217	0.925607	0.0761528	0.0456667	-0.196814	0.324554	-0.296425	0	0	-0.523599	-0.153558	-0.138845	0.481681	-0.133055	0	0	-0.299105	0.156401	0.116873	-0.137202	-0.723508	-0.0262829	1.58804	0.62302	0	0	0.522953	-0.493977	0.636768	1.06972	0.720376	0	0
0.58	-0.101981	1.25044	-1.28987	0.630246	1.19129	0.926908	0.0666754	0.0522057	-0.191997	0.341673	-0.298312	0	0	-0.523599	-0.162225	-0.131674	0.52616	-0.153562	0	0	-0.304725	0.161816	0.120319	-0.136569	-0.72544	-0.0241961	1.58782	0.622496	0	0	0.521535	-0.494459	0.637321	1.06985	0.719472	0	0
0.59	-0.11021	1.24336	-1.28407	0.628974	1.18046	0.928455	0.0551629	0.0580874	-0.190003	0.357593	-0.296174	0	0	-0.519528	-0.171384	-0.12709	0.578907	-0.182264	0	0	-0.311795	0.167028	0.12458	-0.136199	-0.728088	-0.0223236	1.58824	0.621555	0	0	0.520414	-0.494613	0.638129	1.07013	0.717802	0	0
0.6	-0.118286	1.23717	-1.27837	0.627729	1.16957	0.929994	0.0427386	0.0636542	-0.192526	0.369087	-0.29317	0	0	-0.504842	-0.18165	-0.125904	0.639788	-0.213996	0	0	-0.317606	0.171855	0.128769	-0.136658	-0.730894	-0.0207891	1.58914	0.620189	0	0	0.51938	-0.494723	0.639927	1.07069	0.714358	0	0
0.61	-0.125369	1.22978	-1.27319	0.626495	1.15876	0.931578	0.026414	0.0698902	-0.199412	0.374511	-0.289911	0	0	-0.488154	-0.193265	-0.127381	0.706577	-0.243531	0	0	-0.324501	0.176658	0.133217	-0.138299	-0.734358	-0.0201325	1.59117	0.617765	0	0	0.52025	-0.495632	0.644884	1.0713	0.710798	0	0
0.62	-0.130797	1.22207	-1.26912	0.625246	1.14809	0.93303	0.00748257	0.0766207	-0.207909	0.375205	-0.285989	0	0	-0.468796	-0.205319	-0.12945	0.777953	-0.264972	0	0	-0.332009	0.181043	0.138222	-0.141965	-0.738283	-0.0215835	1.59514	0.613325	0	0	0.522275	-0.49701	0.650843	1.07227	0.706433	0	0
0.63	-0.133835	1.21522	-1.26659	0.624069	1.13763	0.93419	-0.0113989	0.0826342	-0.216748	0.37504	-0.280149	0	0	-0.445697	-0.21606	-0.129855	0.851403	-0.27878	0	0	-0.33924	0.184445	0.142973	-0.146943	-0.742613	-0.0245956	1.60071	0.607372	0	0	0.52541	-0.499317	0.658298	1.07436	0.702489	0	0
0.64	-0.13544	1.20979	-1.26458	0.623034	1.12741	0.935041	-0.0286308	0.0879598	-0.224873	0.376284	-0.271254	0	0	-0.418727	-0.224355	-0.125893	0.923389	-0.289629	0	0	-0.345472	0.18701	0.147148	-0.15265	-0.747413	-0.0285618	1.60718	0.600625	0	0	0.528626	-0.501222	0.664958	1.07757	0.69659	0	0
0.65	-0.136722	1.20547	-1.26205	0.622221	1.11749	0.935741	-0.0448538	0.0931551	-0.230274	0.376734	-0.260881	0	0	-0.389117	-0.230046	-0.117617	0.99132	-0.299633	0	0	-0.350847	0.189394	0.150674	-0.158359	-0.752756	-0.0328583	1.61368	0.593869	0	0	0.53185	-0.502234	0.670701	1.08115	0.689887	0	0
0.66	-0.137045	1.20088	-1.25929	0.621623	1.10784	0.936563	-0.0613618	0.0979891	-0.234843	0.376911	-0.250982	0	0	-0.35979	-0.233616	-0.105939	1.05351	-0.306104	0	0	-0.356563	0.191799	0.153396	-0.163841	-0.75814	-0.0374218	1.61966	0.587468	0	0	0.535487	-0.502125	0.675772	1.08395	0.683471	0	0
0.67	-0.135987	1.19545	-1.25669	0.621159	1.09842	0.937639	-0.0796385	0.102889	-0.237923	0.374642	-0.243646	0	0	-0.332096	-0.235375	-0.0919618	1.1102	-0.30052	0	0	-0.363055	0.194057	0.154926	-0.167997	-0.762649	-0.0415673	1.62412	0.582463	0	0	0.540117	-0.502004	0.681856	1.08558	0.680813	0	0
0.68	-0.133543	1.18896	-1.25441	0.620766	1.08923	0.938974	-0.10078	0.108407	-0.239171	0.368037	-0.237303	0	0	-0.306029	-0.23566	-0.0771925	1.16275	-0.275039	0	0	-0.37077	0.196115	0.156073	-0.17204	-0.766482	-0.0461325	1.62775	0.577156	0	0	0.545545	-0.500644	0.687934	1.08603	0.675357	0	0
0.69	-0.129694	1.1824	-1.25329	0.620344	1.08013	0.940503	-0.124265	0.114465	-0.237899	0.356586	-0.233599	0	0	-0.28055	-0.233982	-0.0620294	1.21109	-0.2387	0	0	-0.378232	0.197368	0.156625	-0.174554	-0.768721	-0.0497044	1.6292	0.573628	0	0	0.551015	-0.499153	0.694041	1.08521	0.670087	0	0
0.7	-0.123955	1.17017	-1.25495	0.619673	1.07148	0.942632	-0.154273	0.121802	-0.237195	0.343751	-0.232678	0	0	-0.26204	-0.233403	-0.0505307	1.25232	-0.206639	0	0	-0.392807	0.198827	0.158671	-0.175019	-0.770991	-0.0529056	1.63047	0.570519	0	0	0.558578	-0.498406	0.701142	1.08466	0.665411	0	0
0.71	-0.117955	1.16465	-1.25828	0.618877	1.06242	0.944282	-0.176611	0.125859	-0.237965	0.334168	-0.231277	0	0	-0.237376	-0.22923	-0.0389456	1.28774	-0.186301	0	0	-0.399768	0.197375	0.160068	-0.175426	-0.770936	-0.0548524	1.63011	0.56895	0	0	0.563041	-0.498449	0.706314	1.08439	0.662466	0	0
0.72	-0.112932	1.16071	-1.26289	0.617859	1.0533	0.94584	-0.197326	0.129483	-0.238565	0.324086	-0.230094	0	0	-0.212692	-0.223666	-0.0287361	1.31497	-0.173475	0	0	-0.404786	0.194968	0.16281	-0.175206	-0.770189	-0.0559087	1.62889	0.568532	0	0	0.566787	-0.498422	0.711007	1.08323	0.660498	0	0
0.73	-0.107862	1.15794	-1.26975	0.616682	1.04406	0.947325	-0.216913	0.132312	-0.239866	0.313955	-0.22871	0	0	-0.189088	-0.216605	-0.0199698	1.33361	-0.166297	0	0	-0.408389	0.191491	0.167193	-0.175139	-0.768982	-0.056712	1.62732	0.568518	0	0	0.570189	-0.498173	0.715832	1.08107	0.660263	0	0
0.74	-0.100965	1.15575	-1.28012	0.615438	1.0347	0.948716	-0.235917	0.133435	-0.243181	0.304732	-0.226685	0	0	-0.167504	-0.207894	-0.0130054	1.34519	-0.16009	0	0	-0.411534	0.186459	0.172843	-0.17571	-0.767675	-0.0577158	1.62603	0.568472	0	0	0.573555	-0.49814	0.721343	1.07888	0.661895	0	0
0.75	-0.0929326	1.15392	-1.29306	0.614096	1.02532	0.949979	-0.25416	0.133091	-0.247403	0.296478	-0.224495	0	0	-0.147548	-0.198669	-0.00875117	1.35104	-0.150664	0	0	-0.41474	0.179975	0.17956	-0.176449	-0.766292	-0.0588089	1.625	0.568007	0	0	0.57574	-0.497888	0.724437	1.07783	0.659797	0	0
0.76	-0.0847039	1.15251	-1.30721	0.612712	1.01607	0.95111	-0.27183	0.132168	-0.24966	0.287795	-0.222986	0	0	-0.127766	-0.189798	-0.00799383	1.35227	-0.140787	0	0	-0.417983	0.172735	0.186799	-0.176558	-0.765313	-0.0592587	1.62401	0.567349	0	0	0.57774	-0.498506	0.727112	1.07802	0.656715	0	0
0.77	-0.0769494	1.15126	-1.32169	0.61128	1.0069	0.952111	-0.288847	0.131037	-0.250379	0.279586	-0.22188	0	0	-0.108583	-0.18164	-0.0107445	1.3497	-0.131389	0	0	-0.421299	0.165356	0.19441	-0.175835	-0.764774	-0.0587348	1.62313	0.566898	0	0	0.579818	-0.499856	0.730073	1.07894	0.655497	0	0
0.78	-0.0695138	1.15029	-1.33657	0.609833	0.997823	0.952971	-0.304526	0.129359	-0.25093	0.273662	-0.219707	0	0	-0.0898136	-0.173859	-0.0162437	1.34269	-0.123251	0	0	-0.424323	0.158105	0.202674	-0.175055	-0.764536	-0.0582651	1.62268	0.566126	0	0	0.5809	-0.500416	0.730551	1.07945	0.65403	0	0
0.79	-0.0617935	1.14895	-1.35248	0.60835	0.988847	0.953758	-0.319891	0.126822	-0.250598	0.269485	-0.216385	0	0	-0.0730214	-0.166114	-0.0229788	1.33165	-0.1156	0	0	-0.428129	0.150543	0.211499	-0.173964	-0.764618	-0.0578012	1.62263	0.564682	0	0	0.58195	-0.500938	0.730203	1.08017	0.653094	0	0
0.8	-0.0526446	1.1529	-1.36889	0.607161	0.979412	0.953996	-0.330025	0.1219	-0.251425	0.265992	-0.211282	0	0	-0.051585	-0.156826	-0.0290674	1.31762	-0.108328	0	0	-0.425196	0.141787	0.218412	-0.174091	-0.763669	-0.0569771	1.62183	0.563653	0	0	0.581279	-0.501939	0.7302	1.08069	0.654942	0	0
0.81	-0.0482532	1.14519	-1.38274	0.605816	0.970974	0.955138	-0.351723	0.121118	-0.246649	0.260839	-0.207946	0	0	-0.044101	-0.153353	-0.0392551	1.29547	-0.104315	0	0	-0.436427	0.136706	0.229047	-0.171089	-0.766308	-0.0560114	1.6225	0.561825	0	0	0.584454	-0.502225	0.731018	1.0815	0.657499	0	0
